<?xml version="1.0" standalone="no"?>
<!DOCTYPE svg PUBLIC "-//W3C//DTD SVG 20010904//EN"
 "http://www.w3.org/TR/2001/REC-SVG-20010904/DTD/svg10.dtd">
<svg version="1.0" xmlns="http://www.w3.org/2000/svg"
 width="512.000000pt" height="512.000000pt" viewBox="0 0 512.000000 512.000000"
 preserveAspectRatio="xMidYMid meet">
<g transform="translate(0.000000,512.000000) scale(0.100000,-0.100000)"
fill="#000000" stroke="none">
<path d="M2290 5103 c-19 -3 -87 -15 -150 -29 -393 -84 -737 -277 -1021 -571
-302 -314 -476 -668 -546 -1113 -17 -107 -18 -209 -18 -1386 l0 -1272 -91 -4
c-78 -3 -101 -9 -157 -36 -199 -98 -264 -344 -142 -530 59 -88 167 -153 253
-151 26 0 40 3 32 6 -8 2 -22 7 -30 10 -14 5 -26 9 -55 16 -5 2 -37 18 -71 36
-41 23 -73 50 -98 85 -20 28 -37 54 -37 58 0 4 -6 25 -14 47 -20 56 -14 175
12 231 18 39 62 91 131 154 26 23 127 45 208 46 37 0 66 5 71 13 18 22 23 343
23 1498 1 657 5 1150 10 1170 5 19 12 58 15 88 3 30 8 58 11 63 3 4 7 16 9 26
6 32 26 107 42 152 8 25 16 52 18 61 3 15 49 126 65 158 4 9 25 52 46 96 21
43 52 97 69 120 16 22 39 56 49 75 18 31 42 63 134 179 15 18 43 49 62 69 19
19 34 39 32 44 -1 5 1 7 6 5 4 -3 25 12 47 34 21 21 42 39 47 39 4 0 8 7 8 16
0 8 4 13 9 9 5 -3 16 3 23 12 7 10 25 24 40 32 15 8 25 18 22 23 -3 4 1 8 9 8
7 0 22 8 33 18 10 10 51 38 91 62 39 25 69 48 66 53 -3 5 5 3 18 -3 13 -7 21
-9 17 -5 -7 7 1 18 36 45 18 13 19 13 11 0 -7 -12 -6 -13 6 -3 31 25 129 73
149 73 11 0 20 5 20 11 0 5 4 8 9 4 5 -3 16 2 25 10 8 9 19 15 23 15 4 -1 17
1 28 4 11 3 21 5 23 6 1 0 16 6 32 15 16 8 33 14 37 13 8 -2 147 29 173 39 8
4 26 7 40 9 14 1 59 8 100 14 75 11 107 15 188 18 23 1 42 7 42 12 0 10 -164
12 -240 3z"/>
<path d="M2590 5100 c0 -5 19 -11 43 -12 80 -4 92 -5 179 -17 48 -7 92 -10 99
-5 8 5 9 3 4 -6 -6 -10 -4 -12 9 -7 10 4 23 4 29 0 7 -4 18 -8 27 -9 8 -1 42
-10 75 -19 33 -10 67 -19 75 -20 8 -2 15 -4 15 -5 0 -2 14 -5 52 -14 12 -2 30
-9 41 -15 11 -6 22 -7 26 -4 3 3 6 1 6 -5 0 -7 8 -12 18 -12 10 0 22 -3 26 -7
3 -4 16 -8 27 -10 11 -2 27 -10 35 -18 9 -8 24 -15 33 -15 10 0 30 -9 45 -21
14 -11 26 -18 26 -14 0 3 17 -6 37 -20 21 -14 44 -25 52 -25 8 0 12 -3 8 -6
-3 -3 19 -19 50 -36 49 -26 98 -63 225 -171 41 -35 50 -75 21 -98 -14 -12 -16
-12 -8 0 6 10 4 12 -4 6 -20 -12 -69 17 -144 88 -17 15 -33 27 -37 27 -5 0
-22 14 -40 30 -18 17 -38 30 -46 30 -8 0 -14 4 -14 8 0 4 -35 25 -77 46 -43
22 -80 42 -83 46 -13 19 -247 113 -260 105 -5 -3 -11 -1 -15 5 -5 8 -64 28
-100 34 -5 1 -15 5 -21 8 -13 9 -221 45 -279 49 -56 4 -323 4 -365 0 -95 -9
-240 -35 -240 -43 0 -5 -4 -7 -10 -3 -5 3 -26 -1 -46 -10 -20 -8 -42 -15 -50
-15 -7 0 -25 -5 -41 -11 -15 -7 -38 -13 -49 -15 -12 -1 -36 -10 -54 -19 -18
-9 -41 -18 -51 -20 -24 -5 -154 -70 -189 -95 -14 -10 -29 -18 -33 -18 -5 0
-26 -11 -48 -25 -23 -15 -39 -21 -39 -14 0 7 -4 6 -9 -3 -6 -8 -7 -19 -4 -25
4 -5 3 -7 -1 -3 -5 4 -38 -16 -75 -44 -103 -80 -126 -101 -123 -110 1 -5 -1
-7 -6 -4 -5 3 -44 -30 -86 -74 -42 -43 -80 -80 -84 -82 -4 -2 -6 -6 -5 -10 2
-4 -8 -16 -22 -26 -13 -11 -22 -21 -20 -24 3 -2 -9 -17 -25 -33 -17 -16 -30
-34 -30 -41 0 -6 -7 -15 -16 -18 -8 -3 -13 -10 -10 -15 4 -5 2 -11 -2 -13 -18
-7 -165 -255 -162 -273 0 -3 -7 -19 -15 -35 -9 -17 -13 -30 -9 -30 3 0 0 -10
-8 -22 -17 -26 -55 -125 -62 -160 -3 -13 -14 -59 -26 -103 -54 -206 -52 -163
-57 -1527 -4 -1142 -3 -1270 12 -1297 l16 -31 778 0 c704 0 780 2 792 16 8 10
14 49 16 106 l2 90 -34 33 c-18 18 -31 36 -27 40 3 3 -1 3 -9 0 -10 -4 -32 9
-59 33 -35 31 -42 42 -35 58 4 10 7 23 6 27 -1 5 3 6 9 2 5 -3 10 -2 10 4 0
16 41 4 66 -20 18 -16 26 -19 42 -10 11 6 23 18 26 27 4 9 6 115 6 236 -1 208
-2 219 -21 229 -11 6 -29 19 -40 30 -10 10 -26 19 -35 19 -8 0 -12 5 -9 10 3
6 -1 10 -9 10 -9 0 -16 5 -16 10 0 6 -7 10 -15 10 -8 0 -15 3 -16 8 -7 50 -4
61 15 70 24 11 56 2 75 -22 12 -14 15 -14 37 0 13 9 21 20 18 25 -3 5 0 9 6 9
7 0 10 33 9 98 -1 108 -5 117 -72 166 -21 15 -34 32 -31 38 4 7 2 8 -4 4 -7
-4 -27 8 -47 29 -20 19 -33 35 -29 35 3 0 1 7 -6 15 -51 62 -80 197 -80 376 0
60 -4 90 -13 98 -8 6 -17 8 -20 4 -4 -3 -7 -1 -7 5 0 7 -9 12 -21 12 -11 0
-34 9 -50 21 -16 11 -34 17 -41 13 -7 -4 -10 -4 -6 1 4 4 -7 15 -24 24 -17 9
-33 24 -34 34 -1 10 2 14 8 10 7 -4 9 2 6 15 -4 12 -2 20 2 17 5 -3 11 -1 15
5 3 5 13 10 21 10 8 0 12 -5 9 -10 -4 -6 -3 -10 2 -9 10 3 36 -7 99 -37 28
-14 68 -28 90 -31 21 -3 45 -13 52 -22 10 -12 15 -13 18 -3 3 6 11 12 19 12 7
0 18 6 24 14 10 11 6 33 -14 100 -44 144 -38 342 13 459 12 26 19 47 16 47 -7
0 77 123 95 138 9 8 10 10 2 7 -7 -4 13 18 44 49 31 31 60 56 64 56 3 0 19 11
34 25 15 14 27 23 27 21 0 -3 25 10 56 30 31 20 53 31 50 25 -15 -23 44 12 60
37 9 13 12 22 6 19 -5 -4 -14 5 -20 18 -6 13 -25 31 -42 40 -20 11 -30 22 -26
31 5 12 2 12 -15 3 -15 -8 -19 -8 -15 0 4 6 0 11 -8 11 -9 0 -16 5 -16 10 0 6
-6 10 -12 8 -7 -1 -35 8 -62 22 -28 13 -65 24 -83 24 -18 1 -33 4 -33 8 0 4
-150 7 -334 8 -277 0 -337 -2 -348 -14 -20 -20 -29 -286 -18 -521 10 -202 11
-214 35 -270 10 -22 17 -42 17 -45 0 -3 7 -14 16 -24 9 -11 11 -16 5 -12 -18
10 -16 1 3 -18 22 -23 24 -48 6 -68 -36 -42 -87 -3 -117 87 -3 11 -6 21 -6 22
0 2 -9 24 -21 50 -21 46 -22 64 -28 462 -5 403 -5 414 15 427 15 11 70 14 250
14 225 0 230 1 251 23 11 12 23 30 27 40 4 10 12 15 17 12 6 -4 9 -2 8 3 -4
14 74 110 95 118 10 3 16 8 14 10 -7 8 59 74 73 74 7 0 11 2 8 6 -8 7 57 74
72 74 7 0 11 2 8 6 -8 7 57 74 72 74 7 0 11 2 8 6 -8 7 57 74 72 74 7 0 11 2
8 6 -8 7 56 74 71 74 7 0 9 5 5 12 -5 8 -2 9 10 5 10 -4 15 -3 11 3 -4 6 4 14
17 19 17 6 26 4 36 -8 10 -12 12 -12 6 -1 -7 13 -5 13 9 1 9 -7 14 -18 10 -24
-3 -5 -2 -7 4 -4 5 4 23 -7 38 -23 15 -16 33 -26 39 -23 6 3 8 2 3 -2 -9 -11
63 -86 75 -79 5 3 7 1 6 -4 -2 -5 16 -30 39 -55 23 -24 39 -48 35 -52 -4 -5
-2 -5 5 -2 7 4 39 -22 79 -62 37 -39 72 -67 77 -64 6 3 7 2 4 -4 -3 -5 11 -27
33 -48 25 -25 36 -43 32 -54 -5 -14 -4 -14 13 -1 11 9 16 10 11 3 -4 -7 -3
-13 2 -13 10 0 58 -81 54 -92 -1 -5 2 -8 7 -8 5 0 14 -13 21 -30 7 -16 17 -30
23 -30 6 0 8 -3 4 -6 -3 -4 1 -23 8 -43 16 -39 36 -125 36 -153 0 -26 33 -40
87 -37 26 1 60 -2 75 -6 l28 -7 -4 -417 c-2 -229 -5 -423 -8 -431 -30 -92 -46
-131 -76 -183 -34 -61 -107 -149 -116 -140 -3 2 -8 -5 -12 -16 -3 -12 -10 -21
-14 -21 -4 0 -16 -8 -27 -17 -54 -50 -187 -117 -251 -128 -24 -4 -47 -14 -53
-23 -5 -10 -10 -13 -10 -8 0 5 -6 3 -14 -4 -8 -6 -13 -17 -10 -25 6 -13 -34
-100 -68 -148 -11 -15 -16 -27 -13 -27 12 0 -67 -67 -119 -102 -27 -18 -51
-41 -52 -51 -1 -11 0 -16 3 -13 4 3 13 -3 21 -15 12 -17 21 -20 49 -14 39 7
63 -7 63 -38 0 -20 -43 -67 -61 -67 -5 0 -9 -6 -9 -13 0 -8 -10 -19 -23 -24
-13 -6 -25 -17 -26 -25 -1 -7 -4 -45 -7 -83 -5 -62 -3 -74 15 -95 l21 -25 31
35 c17 19 37 34 43 32 6 -2 8 -1 4 3 -8 8 59 76 115 118 20 15 37 23 37 17 0
-6 9 -2 20 8 12 11 40 28 63 38 23 10 44 21 47 24 3 3 10 5 15 5 6 0 43 8 83
18 85 20 355 28 372 11 14 -14 14 -271 0 -325 -35 -134 -46 -168 -65 -205 -39
-74 -95 -152 -140 -193 -25 -23 -42 -41 -38 -41 6 0 -48 -38 -106 -75 -9 -5
-18 -12 -21 -15 -15 -15 -92 -50 -121 -55 -18 -3 -37 -9 -43 -12 -6 -4 -17 -8
-26 -9 -8 -1 -46 -7 -85 -13 -38 -6 -96 -11 -127 -11 -75 0 -93 -17 -97 -89
-1 -35 3 -61 14 -77 l15 -24 861 0 860 0 15 37 c14 33 15 176 11 1297 -5 1214
-6 1265 -25 1371 -11 61 -28 137 -37 170 -9 33 -21 78 -27 100 -6 22 -19 59
-29 82 -11 24 -19 46 -19 51 0 4 -9 24 -19 44 -11 19 -17 39 -14 42 4 3 1 6
-5 6 -7 0 -11 3 -10 8 4 13 -42 106 -64 129 -12 13 -18 23 -14 23 5 0 -2 15
-16 33 -13 17 -30 44 -37 60 -8 15 -18 27 -23 27 -4 0 -8 5 -8 11 0 11 -50 82
-63 87 -4 2 -5 8 -1 13 3 5 0 9 -7 9 -7 0 -10 3 -6 6 3 4 -1 13 -9 21 -10 11
-12 19 -4 27 5 7 7 15 4 18 -3 3 11 5 31 4 28 -1 42 -9 63 -36 15 -19 37 -45
49 -57 12 -13 19 -23 15 -23 -4 0 2 -7 12 -15 11 -8 16 -15 11 -15 -4 0 0 -9
10 -20 10 -11 14 -20 9 -20 -5 -1 5 -12 21 -26 17 -15 24 -23 17 -19 -11 6
-11 3 0 -14 7 -12 16 -21 21 -21 4 0 5 -4 2 -10 -3 -5 -1 -10 4 -10 6 0 11 -6
11 -14 0 -7 9 -25 21 -40 11 -14 18 -26 14 -26 -3 0 4 -14 16 -32 13 -17 17
-28 10 -24 -7 5 -2 -9 12 -30 13 -22 24 -41 24 -44 1 -3 8 -23 17 -44 15 -37
47 -136 52 -162 1 -6 9 -36 17 -65 15 -52 35 -153 41 -214 2 -16 6 -57 10 -90
4 -33 8 -625 9 -1316 2 -1047 4 -1259 16 -1272 9 -12 30 -17 69 -17 65 0 183
-20 177 -31 -3 -4 2 -10 11 -13 10 -4 13 -2 8 6 -4 7 13 -5 38 -26 47 -39 110
-116 114 -139 1 -6 7 -36 13 -66 15 -73 14 -122 -4 -164 -8 -19 -11 -37 -8
-41 4 -3 1 -6 -5 -6 -7 0 -12 -6 -12 -13 0 -27 -96 -116 -154 -143 -31 -14
-62 -27 -69 -28 -7 -2 -19 -6 -27 -9 -8 -3 -22 -8 -30 -10 -8 -3 7 -6 34 -6
67 -1 162 45 215 105 170 193 113 476 -117 582 -44 20 -77 27 -147 30 l-90 4
0 1267 c0 1169 -1 1275 -18 1385 -47 312 -154 593 -316 837 -104 155 -135 189
-177 189 -21 0 -42 -8 -54 -20 -33 -33 -25 -70 29 -142 154 -203 267 -436 327
-670 59 -235 57 -172 61 -1565 l4 -1283 -860 0 -861 0 0 63 0 64 113 6 c129 7
230 33 330 83 191 96 327 254 398 464 30 88 32 107 37 260 6 226 16 215 -195
214 -171 0 -229 -11 -352 -62 -114 -48 -233 -139 -304 -232 l-27 -35 1 85 0
85 60 49 c70 56 85 85 67 124 -17 35 -59 50 -98 35 -26 -10 -30 -9 -30 6 0 9
12 24 28 33 89 53 175 162 208 261 9 29 18 53 19 55 2 2 29 10 62 19 121 31
271 128 355 229 87 105 148 241 166 370 15 101 15 732 1 772 -15 43 -35 52
-117 52 l-69 0 -12 68 c-14 79 -62 196 -110 267 -19 28 -154 170 -300 318
-248 250 -268 267 -301 267 -34 0 -53 -17 -306 -272 -149 -150 -284 -294 -300
-320 l-29 -48 -241 0 c-238 0 -241 0 -262 -23 -22 -23 -22 -27 -22 -409 0
-351 2 -392 20 -464 28 -110 87 -226 123 -238 37 -13 79 3 95 37 12 25 10 34
-23 103 -61 129 -65 161 -65 522 l0 323 348 -3 c322 -4 351 -5 403 -25 79 -29
116 -50 178 -96 l55 -40 -35 -12 c-144 -50 -289 -172 -377 -318 -74 -122 -112
-305 -92 -445 12 -89 27 -146 46 -184 13 -26 13 -28 -3 -28 -43 1 -149 33
-214 65 -73 37 -96 38 -131 7 -24 -21 -23 -77 2 -102 24 -24 101 -64 158 -80
l42 -13 0 -144 c0 -160 15 -226 71 -314 28 -45 110 -128 156 -159 20 -14 22
-25 25 -127 3 -111 3 -112 -17 -97 -42 30 -69 37 -95 22 -13 -7 -31 -25 -39
-40 -22 -39 -4 -69 78 -125 l70 -48 3 -225 c2 -124 2 -227 1 -228 -1 -2 -15 6
-31 18 -39 29 -88 24 -115 -12 -31 -41 -15 -73 68 -135 l70 -52 5 -95 5 -96
-777 0 -778 0 0 1183 c0 717 4 1239 11 1327 18 254 73 461 183 685 265 538
753 908 1341 1015 527 97 1093 -52 1506 -396 58 -48 85 -64 108 -64 42 0 71
31 71 74 0 31 -8 42 -82 104 -264 222 -593 372 -944 432 -123 21 -304 27 -304
10z"/>
<path d="M2406 4289 c-116 -117 -210 -215 -209 -220 2 -5 -4 -6 -12 -3 -17 7
-38 -37 -29 -61 8 -20 40 -27 180 -39 22 -2 54 -11 71 -19 17 -9 34 -13 37 -9
4 3 11 1 15 -6 4 -7 17 -14 29 -15 12 0 24 -7 26 -14 3 -7 15 -13 26 -13 11 0
19 -4 18 -9 -2 -5 0 -8 3 -7 3 0 26 -16 52 -36 25 -21 48 -38 51 -38 7 0 62
-54 61 -61 0 -13 31 -35 44 -31 8 3 11 0 7 -6 -4 -7 1 -9 15 -7 12 3 107 5
210 5 237 2 238 2 215 102 -17 72 -66 174 -102 213 -13 14 -21 25 -18 25 3 0
-99 104 -226 230 -127 127 -236 230 -242 230 -7 0 -107 -95 -222 -211z m455
-46 c148 -150 238 -249 261 -288 33 -55 78 -177 78 -211 0 -12 -38 -14 -215
-14 l-214 0 -48 51 c-127 136 -334 229 -510 229 l-48 0 230 230 c126 127 232
230 235 230 3 0 107 -102 231 -227z"/>
<path d="M3926 4307 c3 -10 9 -15 12 -12 3 3 0 11 -7 18 -10 9 -11 8 -5 -6z"/>
<path d="M803 4175 c0 -8 4 -12 9 -9 5 3 6 10 3 15 -9 13 -12 11 -12 -6z"/>
<path d="M2106 4111 c-3 -5 0 -11 7 -14 8 -3 14 1 14 9 0 16 -13 19 -21 5z"/>
<path d="M2665 3590 c-38 -11 -74 -20 -78 -20 -5 0 -5 -4 -2 -10 3 -5 -3 -10
-13 -10 -22 0 -116 -61 -144 -93 -10 -11 -18 -17 -18 -14 0 4 -11 -3 -25 -15
-13 -11 -22 -25 -19 -29 2 -4 -5 -13 -16 -19 -11 -6 -18 -15 -15 -19 2 -5 -2
-14 -10 -21 -24 -20 -60 -91 -84 -168 -21 -64 -23 -85 -19 -194 6 -129 13
-155 80 -284 27 -51 110 -144 130 -144 6 0 8 -7 4 -15 -3 -8 -2 -14 2 -14 15
2 52 -14 52 -23 0 -8 81 -50 95 -48 3 0 22 -7 43 -16 63 -27 182 -48 218 -40
11 3 42 8 69 11 27 4 56 10 65 15 10 5 20 6 24 3 3 -3 6 -1 6 6 0 8 7 10 21 6
13 -5 19 -3 15 3 -3 5 7 12 23 15 15 3 42 18 59 32 17 14 32 25 34 23 3 -2 13
6 70 55 12 9 26 17 31 17 6 0 7 3 4 6 -4 4 6 21 21 39 58 68 67 80 65 87 -2 4
9 31 23 61 43 94 53 197 51 516 -2 254 -4 289 -19 304 -15 15 -50 17 -345 16
-291 0 -336 -2 -398 -19z m735 -307 c-1 -212 -5 -321 -15 -378 -36 -202 -188
-380 -383 -447 -94 -32 -278 -32 -366 0 -182 67 -317 211 -372 397 -25 85 -23
230 5 315 61 192 226 348 417 394 45 11 139 15 387 15 l327 1 0 -297z"/>
<path d="M3509 2678 c-6 -20 -6 -39 0 -42 4 -3 7 6 7 20 0 20 -4 32 -7 22z"/>
<path d="M2131 2576 c-8 -10 -11 -54 -8 -143 3 -133 7 -156 28 -195 8 -13 13
-26 14 -30 0 -15 70 -97 83 -98 7 0 15 -6 18 -14 12 -31 108 -66 197 -72 54
-3 88 -1 92 6 3 5 15 10 26 10 32 0 91 35 139 82 54 54 61 62 84 112 18 39 18
40 -2 56 -11 10 -54 22 -94 29 -77 12 -151 34 -144 42 3 3 -4 5 -15 6 -26 2
-99 35 -99 45 0 4 -32 30 -72 58 -39 27 -68 50 -64 50 4 0 -9 16 -28 35 -32
31 -41 35 -89 35 -35 0 -59 -5 -66 -14z m147 -55 c83 -104 264 -203 416 -229
53 -9 96 -21 96 -27 0 -19 -70 -114 -103 -139 -169 -129 -401 -81 -502 105
-23 44 -29 68 -32 134 -2 44 -5 106 -6 138 l-3 57 51 0 c48 0 54 -3 83 -39z"/>
<path d="M2388 1918 c-17 -17 -18 -50 -18 -596 0 -507 2 -580 16 -600 13 -20
24 -22 93 -22 61 0 82 4 92 17 12 13 14 120 14 599 0 677 10 618 -107 620 -57
0 -75 -3 -90 -18z m167 -600 l0 -588 -77 0 -78 0 0 588 0 587 78 0 77 0 0
-587z"/>
<path d="M3194 1751 c-39 -10 -89 -27 -112 -39 -22 -11 -43 -18 -46 -15 -3 3
-8 -2 -12 -11 -3 -9 -10 -14 -14 -11 -5 3 -21 -7 -36 -22 -15 -16 -21 -19 -13
-8 l14 20 -24 -20 c-13 -11 -45 -42 -70 -69 -25 -27 -51 -54 -56 -60 -25 -26
-67 -86 -61 -86 4 0 -2 -13 -13 -28 -61 -87 -102 -338 -63 -399 12 -20 21 -21
112 -21 55 0 98 4 95 8 -2 3 11 6 30 5 18 0 31 3 29 7 -3 4 7 8 22 8 14 0 53
13 84 29 32 16 60 28 62 25 3 -2 17 10 33 26 16 17 34 30 41 30 24 0 170 171
157 184 -3 3 -2 6 4 6 11 0 63 101 69 136 2 13 9 36 15 51 6 16 13 74 16 131
8 135 2 142 -111 141 -45 -1 -113 -9 -152 -18z m236 -94 c0 -172 -64 -330
-185 -453 -121 -122 -255 -181 -439 -191 l-109 -6 6 99 c13 188 65 314 184
437 122 127 281 193 471 196 l72 1 0 -83z"/>
<path d="M3225 1271 c-3 -5 -2 -12 3 -15 5 -3 9 1 9 9 0 17 -3 19 -12 6z"/>
<path d="M3129 1183 c-13 -16 -12 -17 4 -4 9 7 17 15 17 17 0 8 -8 3 -21 -13z"/>
<path d="M3336 993 c-6 -14 -5 -15 5 -6 7 7 10 15 7 18 -3 3 -9 -2 -12 -12z"/>
<path d="M2086 968 c3 -4 11 -5 19 -1 21 7 19 12 -4 10 -11 0 -18 -5 -15 -9z"/>
<path d="M310 660 c-9 -6 -10 -10 -3 -10 6 0 15 5 18 10 8 12 4 12 -15 0z"/>
<path d="M432 608 c-22 -4 -57 -16 -79 -26 -38 -20 -101 -78 -104 -97 -1 -5
-6 -21 -11 -35 -27 -67 -18 -160 19 -208 54 -70 122 -120 145 -106 7 4 8 3 4
-4 -5 -9 519 -12 2154 -12 1607 0 2159 3 2154 12 -4 6 -3 8 4 4 12 -7 62 13
62 26 0 4 6 8 13 8 6 1 21 12 32 26 11 14 28 34 37 46 10 11 20 36 24 54 9 51
0 167 -14 172 -7 2 -12 11 -12 21 0 18 -47 66 -91 93 -14 9 -46 19 -70 23 -60
8 -4217 12 -4267 3z m4315 -49 c159 -77 161 -299 4 -381 l-53 -28 -2138 0
-2138 0 -53 28 c-157 82 -155 303 3 381 l43 21 2144 0 2145 0 43 -21z"/>
</g>
</svg>
